<?xml version="1.0" encoding="UTF-8"?>
<svg width="800" height="600" viewBox="0 0 800 600" xmlns="http://www.w3.org/2000/svg">
    <!-- Background -->
    <rect width="800" height="600" fill="#f8f9fa"/>
    
    <!-- Machine Base -->
    <rect x="200" y="300" width="400" height="200" fill="#1a237e" rx="10"/>
    <rect x="250" y="350" width="300" height="150" fill="#0d47a1" rx="5"/>
    
    <!-- Control Panel -->
    <rect x="300" y="400" width="200" height="100" fill="#ff3d00" rx="5"/>
    <circle cx="350" cy="450" r="10" fill="white"/>
    <circle cx="400" cy="450" r="10" fill="white"/>
    <circle cx="450" cy="450" r="10" fill="white"/>
    
    <!-- Documentation -->
    <rect x="500" y="200" width="150" height="200" fill="white" rx="5" stroke="#1a237e" stroke-width="2"/>
    <line x1="520" y1="220" x2="630" y2="220" stroke="#1a237e" stroke-width="2"/>
    <line x1="520" y1="240" x2="630" y2="240" stroke="#1a237e" stroke-width="1"/>
    <line x1="520" y1="260" x2="630" y2="260" stroke="#1a237e" stroke-width="1"/>
    
    <!-- QR Code -->
    <rect x="550" y="150" width="100" height="100" fill="white" stroke="#1a237e" stroke-width="2"/>
    <rect x="570" y="170" width="20" height="20" fill="#1a237e"/>
    <rect x="610" y="170" width="20" height="20" fill="#1a237e"/>
    <rect x="570" y="210" width="20" height="20" fill="#1a237e"/>
    <rect x="610" y="210" width="20" height="20" fill="#1a237e"/>
    
    <!-- Decorative Elements -->
    <circle cx="100" cy="100" r="50" fill="#1a237e" opacity="0.1"/>
    <circle cx="700" cy="500" r="30" fill="#ff3d00" opacity="0.1"/>
</svg> 