<?xml version="1.0" encoding="UTF-8"?>
<svg width="800" height="600" viewBox="0 0 800 600" xmlns="http://www.w3.org/2000/svg">
    <!-- Background -->
    <rect width="800" height="600" fill="#f8f9fa"/>
    
    <!-- Production Line -->
    <rect x="100" y="300" width="600" height="100" fill="#1a237e" rx="5"/>
    
    <!-- Machines -->
    <rect x="150" y="250" width="150" height="200" fill="#0d47a1" rx="10"/>
    <rect x="350" y="250" width="150" height="200" fill="#0d47a1" rx="10"/>
    <rect x="550" y="250" width="150" height="200" fill="#0d47a1" rx="10"/>
    
    <!-- Control Panels -->
    <rect x="170" y="300" width="110" height="80" fill="#ff3d00" rx="5"/>
    <rect x="370" y="300" width="110" height="80" fill="#ff3d00" rx="5"/>
    <rect x="570" y="300" width="110" height="80" fill="#ff3d00" rx="5"/>
    
    <!-- QR Codes -->
    <rect x="190" y="200" width="70" height="70" fill="white" stroke="#1a237e" stroke-width="2"/>
    <rect x="390" y="200" width="70" height="70" fill="white" stroke="#1a237e" stroke-width="2"/>
    <rect x="590" y="200" width="70" height="70" fill="white" stroke="#1a237e" stroke-width="2"/>
    
    <!-- QR Code Patterns -->
    <g transform="translate(200,210)">
        <rect x="0" y="0" width="15" height="15" fill="#1a237e"/>
        <rect x="40" y="0" width="15" height="15" fill="#1a237e"/>
        <rect x="0" y="40" width="15" height="15" fill="#1a237e"/>
        <rect x="40" y="40" width="15" height="15" fill="#1a237e"/>
    </g>
    <g transform="translate(400,210)">
        <rect x="0" y="0" width="15" height="15" fill="#1a237e"/>
        <rect x="40" y="0" width="15" height="15" fill="#1a237e"/>
        <rect x="0" y="40" width="15" height="15" fill="#1a237e"/>
        <rect x="40" y="40" width="15" height="15" fill="#1a237e"/>
    </g>
    <g transform="translate(600,210)">
        <rect x="0" y="0" width="15" height="15" fill="#1a237e"/>
        <rect x="40" y="0" width="15" height="15" fill="#1a237e"/>
        <rect x="0" y="40" width="15" height="15" fill="#1a237e"/>
        <rect x="40" y="40" width="15" height="15" fill="#1a237e"/>
    </g>
    
    <!-- Decorative Elements -->
    <circle cx="100" cy="100" r="30" fill="#1a237e" opacity="0.1"/>
    <circle cx="700" cy="500" r="40" fill="#ff3d00" opacity="0.1"/>
</svg> 