<?xml version="1.0" encoding="UTF-8"?>
<svg width="800" height="600" viewBox="0 0 800 600" xmlns="http://www.w3.org/2000/svg">
    <!-- Background -->
    <rect width="800" height="600" fill="#f8f9fa"/>
    
    <!-- Main Turbine -->
    <circle cx="400" cy="300" r="150" fill="#1a237e"/>
    <circle cx="400" cy="300" r="140" fill="#0d47a1"/>
    <circle cx="400" cy="300" r="130" fill="#ff3d00"/>
    
    <!-- Turbine Blades -->
    <g transform="translate(400,300)">
        <path d="M-120,0 L-100,-20 L-80,0 L-100,20 Z" fill="white"/>
        <path d="M0,-120 L20,-100 L0,-80 L-20,-100 Z" fill="white"/>
        <path d="M120,0 L100,20 L80,0 L100,-20 Z" fill="white"/>
        <path d="M0,120 L-20,100 L0,80 L20,100 Z" fill="white"/>
    </g>
    
    <!-- Control Systems -->
    <rect x="200" y="200" width="150" height="200" fill="#1a237e" rx="10"/>
    <rect x="450" y="200" width="150" height="200" fill="#1a237e" rx="10"/>
    
    <!-- Control Panels -->
    <rect x="220" y="220" width="110" height="160" fill="#0d47a1" rx="5"/>
    <rect x="470" y="220" width="110" height="160" fill="#0d47a1" rx="5"/>
    
    <!-- QR Codes -->
    <rect x="250" y="150" width="80" height="80" fill="white" stroke="#1a237e" stroke-width="2"/>
    <rect x="470" y="150" width="80" height="80" fill="white" stroke="#1a237e" stroke-width="2"/>
    
    <!-- QR Code Patterns -->
    <g transform="translate(260,160)">
        <rect x="0" y="0" width="20" height="20" fill="#1a237e"/>
        <rect x="40" y="0" width="20" height="20" fill="#1a237e"/>
        <rect x="0" y="40" width="20" height="20" fill="#1a237e"/>
        <rect x="40" y="40" width="20" height="20" fill="#1a237e"/>
    </g>
    <g transform="translate(480,160)">
        <rect x="0" y="0" width="20" height="20" fill="#1a237e"/>
        <rect x="40" y="0" width="20" height="20" fill="#1a237e"/>
        <rect x="0" y="40" width="20" height="20" fill="#1a237e"/>
        <rect x="40" y="40" width="20" height="20" fill="#1a237e"/>
    </g>
    
    <!-- Decorative Elements -->
    <circle cx="100" cy="100" r="40" fill="#1a237e" opacity="0.1"/>
    <circle cx="700" cy="500" r="30" fill="#ff3d00" opacity="0.1"/>
</svg> 