<?xml version="1.0" encoding="UTF-8"?>
<svg width="800" height="600" viewBox="0 0 800 600" xmlns="http://www.w3.org/2000/svg">
    <!-- Background -->
    <rect width="800" height="600" fill="#f8f9fa"/>
    
    <!-- Technician -->
    <circle cx="400" cy="300" r="100" fill="#1a237e"/>
    <circle cx="400" cy="300" r="90" fill="#0d47a1"/>
    <circle cx="400" cy="300" r="80" fill="#ff3d00"/>
    
    <!-- Mobile Device -->
    <rect x="450" y="250" width="120" height="200" fill="white" rx="10" stroke="#1a237e" stroke-width="2"/>
    <rect x="460" y="260" width="100" height="180" fill="#f8f9fa" rx="5"/>
    
    <!-- QR Code on Device -->
    <rect x="480" y="280" width="60" height="60" fill="white" stroke="#1a237e" stroke-width="1"/>
    <rect x="490" y="290" width="15" height="15" fill="#1a237e"/>
    <rect x="515" y="290" width="15" height="15" fill="#1a237e"/>
    <rect x="490" y="315" width="15" height="15" fill="#1a237e"/>
    <rect x="515" y="315" width="15" height="15" fill="#1a237e"/>
    
    <!-- Machine -->
    <rect x="200" y="400" width="400" height="150" fill="#1a237e" rx="10"/>
    <rect x="250" y="420" width="300" height="130" fill="#0d47a1" rx="5"/>
    
    <!-- Machine QR Code -->
    <rect x="300" y="350" width="100" height="100" fill="white" stroke="#1a237e" stroke-width="2"/>
    <rect x="320" y="370" width="20" height="20" fill="#1a237e"/>
    <rect x="360" y="370" width="20" height="20" fill="#1a237e"/>
    <rect x="320" y="410" width="20" height="20" fill="#1a237e"/>
    <rect x="360" y="410" width="20" height="20" fill="#1a237e"/>
    
    <!-- Decorative Elements -->
    <circle cx="100" cy="100" r="40" fill="#1a237e" opacity="0.1"/>
    <circle cx="700" cy="500" r="30" fill="#ff3d00" opacity="0.1"/>
</svg> 